<?xml version="1.0" encoding="UTF-8" standalone="no"?>
<svg
   xmlns:dc="http://purl.org/dc/elements/1.1/"
   xmlns:cc="http://creativecommons.org/ns#"
   xmlns:rdf="http://www.w3.org/1999/02/22-rdf-syntax-ns#"
   xmlns:svg="http://www.w3.org/2000/svg"
   xmlns="http://www.w3.org/2000/svg"
   xmlns:sodipodi="http://sodipodi.sourceforge.net/DTD/sodipodi-0.dtd"
   xmlns:inkscape="http://www.inkscape.org/namespaces/inkscape"
   fill="#000000"
   height="24"
   viewBox="0 0 24 24"
   width="24"
   id="svg2"
   version="1.1"
   inkscape:version="0.91 r13725"
   sodipodi:docname="ic_insert_chart_black_24px.svg">
  <metadata
     id="metadata12">
    <rdf:RDF>
      <cc:Work
         rdf:about="">
        <dc:format>image/svg+xml</dc:format>
        <dc:type
           rdf:resource="http://purl.org/dc/dcmitype/StillImage" />
      </cc:Work>
    </rdf:RDF>
  </metadata>
  <defs
     id="defs10" />
  <sodipodi:namedview
     pagecolor="#ffffff"
     bordercolor="#666666"
     borderopacity="1"
     objecttolerance="10"
     gridtolerance="10"
     guidetolerance="10"
     inkscape:pageopacity="0"
     inkscape:pageshadow="2"
     inkscape:window-width="954"
     inkscape:window-height="644"
     id="namedview8"
     showgrid="false"
     inkscape:zoom="9.8333333"
     inkscape:cx="12"
     inkscape:cy="12"
     inkscape:window-x="527"
     inkscape:window-y="145"
     inkscape:window-maximized="0"
     inkscape:current-layer="svg2" />
  <path
     d="m 19.20339,2.4915254 -14.0000002,0 c -1.1,0 -2,0.9 -2,2 l 0,13.9999996 c 0,1.1 0.9,2 2,2 l 14.0000002,0 c 1.1,0 2,-0.9 2,-2 l 0,-13.9999996 c 0,-1.1 -0.9,-2 -2,-2 z M 9.2033898,16.491525 l -2,0 0,-6.9999996 2,0 0,6.9999996 z m 4.0000002,0 -2,0 0,-9.9999996 2,0 0,9.9999996 z m 4,0 -2,0 0,-4 2,0 0,4 z"
     id="path4"
     style="fill:#3f51b5;fill-opacity:1"
     inkscape:connector-curvature="0"
     inkscape:export-filename="C:\git-workspace\FitnessExplorer\app\src\main\res\mipmap-xxxhdpi\ic_launcher.png"
     inkscape:export-xdpi="960"
     inkscape:export-ydpi="960" />
  <path
     d="M0 0h24v24H0z"
     fill="none"
     id="path6" />
</svg>
